<svg width="96" height="96" viewBox="0 0 96 96" fill="none" xmlns="http://www.w3.org/2000/svg">
<g filter="url(#filter0_d_816_769)">
<path d="M71.0192 50.9542C71.2159 59.3721 66.9483 71.9565 56.0576 77.0889C53.3204 78.3788 51.7993 77.1272 48.4981 77.2863C45.5485 77.4285 44.6373 78.4687 41.8281 77.4629C30.1624 73.2862 24.9825 61.0518 24.7719 52.0348C24.4964 40.2463 34.1394 34.0187 47.667 41.7114C59.9416 33.8608 70.7438 39.1658 71.0192 50.9542Z" fill="#FF542F"/>
<path fill-rule="evenodd" clip-rule="evenodd" d="M47.6097 39.4005C40.9178 35.8818 34.7803 35.4229 30.1365 37.785C25.201 40.2956 22.6221 45.6464 22.7724 52.0815C22.995 61.6094 28.4485 74.7969 41.1539 79.3459C42.9095 79.9745 44.1841 79.9794 45.4274 79.7799C45.8545 79.7113 46.2031 79.6391 46.531 79.5712C47.1595 79.441 47.712 79.3266 48.5944 79.284C49.6433 79.2334 50.3986 79.3416 51.2571 79.4646C51.5707 79.5096 51.8982 79.5565 52.2587 79.5983C53.621 79.7565 55.0939 79.754 56.9102 78.8981C68.7637 73.3119 73.2265 59.8015 73.0187 50.9076C72.8662 44.3825 69.7493 39.3102 64.6265 37.1282C59.8335 35.0866 53.7683 35.7808 47.6097 39.4005ZM56.0576 77.0889C66.9483 71.9565 71.2159 59.3722 71.0192 50.9543C70.7438 39.1658 59.9416 33.8608 47.667 41.7114C34.1394 34.0187 24.4964 40.2463 24.7719 52.0348C24.9825 61.0518 30.1624 73.2862 41.8281 77.4629C43.652 78.116 44.6759 77.9065 45.977 77.6403C46.6798 77.4966 47.4636 77.3362 48.4981 77.2863C49.7535 77.2258 50.7514 77.3693 51.6566 77.4995C53.132 77.7116 54.3612 77.8883 56.0576 77.0889Z" fill="#734125"/>
<path fill-rule="evenodd" clip-rule="evenodd" d="M51.6094 71.7512C62.5002 66.6188 65.8782 54.0345 65.6815 45.6166C65.6239 43.1514 65.106 40.9698 64.2105 39.1327C68.2705 41.036 70.8855 45.231 71.0192 50.9543C71.2159 59.3722 66.9483 71.9565 56.0575 77.0889C54.3612 77.8883 53.1319 77.7116 51.6566 77.4995C50.7513 77.3693 49.7534 77.2258 48.4981 77.2864C47.4635 77.3362 46.6798 77.4966 45.9769 77.6404C44.6758 77.9066 43.652 78.116 41.828 77.463C37.5612 75.9353 34.1621 73.3297 31.5564 70.1978C32.793 70.952 34.139 71.6019 35.6007 72.1253C37.482 72.7988 38.911 72.5548 40.5357 72.2774C41.3371 72.1406 42.186 71.9956 43.1604 71.9487C44.3837 71.8897 45.4847 72.0244 46.5254 72.1518C48.293 72.3681 49.8866 72.5632 51.6094 71.7512Z" fill="#ED4A27"/>
<path d="M64.3817 48.7414C64.2459 49.7146 63.3469 50.3935 62.3737 50.2577C61.4004 50.1219 60.7216 49.2229 60.8573 48.2497C60.9931 47.2765 61.8921 46.5976 62.8653 46.7334C63.8385 46.8691 64.5174 47.7681 64.3817 48.7414Z" fill="#C53622"/>
<path d="M69.1973 53.8925C69.0615 54.8657 68.1625 55.5446 67.1893 55.4088C66.2161 55.2731 65.5372 54.3741 65.6729 53.4008C65.8087 52.4276 66.7077 51.7487 67.6809 51.8845C68.6541 52.0203 69.333 52.9193 69.1973 53.8925Z" fill="#C53622"/>
<path d="M69.0944 47.1531C68.9926 47.883 68.3183 48.3922 67.5884 48.2904C66.8585 48.1886 66.3493 47.5143 66.4511 46.7844C66.553 46.0545 67.2272 45.5453 67.9571 45.6471C68.687 45.749 69.1962 46.4232 69.0944 47.1531Z" fill="#C53622"/>
<path d="M67.4475 60.0808C67.3117 61.0541 66.4127 61.7329 65.4395 61.5972C64.4663 61.4614 63.7874 60.5624 63.9232 59.5892C64.0589 58.616 64.958 57.9371 65.9312 58.0729C66.9044 58.2086 67.5833 59.1076 67.4475 60.0808Z" fill="#C53622"/>
<path d="M62.6319 54.9296C62.4961 55.9028 61.5971 56.5817 60.6239 56.4459C59.6507 56.3102 58.9718 55.4112 59.1076 54.4379C59.2433 53.4647 60.1423 52.7858 61.1156 52.9216C62.0888 53.0574 62.7677 53.9564 62.6319 54.9296Z" fill="#C53622"/>
<path d="M64.5111 66.8261C64.3753 67.7993 63.4763 68.4782 62.5031 68.3424C61.5299 68.2067 60.851 67.3076 60.9868 66.3344C61.1225 65.3612 62.0216 64.6823 62.9948 64.8181C63.968 64.9539 64.6469 65.8529 64.5111 66.8261Z" fill="#C53622"/>
<path d="M60.9361 61.4326C60.8003 62.4059 59.9013 63.0848 58.9281 62.949C57.9549 62.8132 57.276 61.9142 57.4118 60.941C57.5475 59.9678 58.4465 59.2889 59.4198 59.4247C60.393 59.5604 61.0719 60.4594 60.9361 61.4326Z" fill="#C53622"/>
<path d="M60.9838 70.7753C60.882 71.5052 60.2078 72.0144 59.4779 71.9126C58.7479 71.8108 58.2388 71.1365 58.3406 70.4066C58.4424 69.6767 59.1167 69.1675 59.8466 69.2693C60.5765 69.3712 61.0857 70.0454 60.9838 70.7753Z" fill="#C53622"/>
<path d="M57.648 23.4991C57.648 23.4991 59.6246 31.6492 57.5433 36.0865C55.0347 41.4347 47.4591 41.7723 47.4591 41.7723C47.4591 41.7723 45.1654 35.5204 48.1965 30.0842C50.5282 25.9026 57.648 23.4991 57.648 23.4991Z" fill="#7CD623"/>
<path fill-rule="evenodd" clip-rule="evenodd" d="M59.5917 23.0277L57.648 23.4991L57.0083 21.6041C57.5397 21.4247 58.122 21.4767 58.6133 21.7474C59.1045 22.0181 59.4595 22.4826 59.5917 23.0277ZM55.7682 24.2536C56.8811 23.758 57.648 23.4991 57.648 23.4991C57.648 23.4991 57.8368 24.2776 58.0363 25.4845C58.4822 28.1824 58.9813 33.0207 57.5433 36.0865C55.0347 41.4347 47.4591 41.7723 47.4591 41.7723C47.4591 41.7723 45.1654 35.5204 48.1965 30.0842C49.7629 27.275 53.4903 25.2683 55.7682 24.2536ZM47.4591 41.7723C45.5815 42.4612 45.5812 42.4605 45.581 42.4598L45.5792 42.4548L45.576 42.4461L45.5673 42.4218C45.5605 42.4025 45.5516 42.3772 45.541 42.346C45.5198 42.2837 45.4913 42.1978 45.4577 42.0902C45.3904 41.8751 45.3019 41.5721 45.2077 41.1954C45.02 40.4441 44.8068 39.3868 44.6986 38.1397C44.4842 35.6684 44.6705 32.3012 46.4497 29.1103C47.907 26.4966 50.7059 24.6247 52.843 23.4655C53.9553 22.8622 54.9846 22.4015 55.7358 22.0913C56.1126 21.9357 56.4226 21.8167 56.6421 21.7353C56.7519 21.6946 56.8393 21.6632 56.9012 21.6413C56.9322 21.6304 56.9569 21.6218 56.9748 21.6156L56.9967 21.6081L57.0064 21.6048L57.0083 21.6041C57.0088 21.604 57.0083 21.6041 57.648 23.4991C59.5917 23.0277 59.5916 23.0273 59.5917 23.0277L59.5927 23.032L59.5944 23.0392L59.6 23.0626L59.6189 23.1437C59.6347 23.2126 59.6569 23.311 59.6838 23.4359C59.7377 23.6855 59.811 24.0417 59.8915 24.4812C60.0522 25.3577 60.2442 26.5774 60.368 27.949C60.6055 30.5797 60.6385 34.1974 59.354 36.9359C57.7653 40.3228 54.6378 41.9985 52.2061 42.8279C50.9639 43.2516 49.819 43.4847 48.9859 43.6128C48.5672 43.6772 48.2214 43.7159 47.9743 43.7388C47.8506 43.7503 47.7512 43.7579 47.6792 43.7627C47.6432 43.7651 47.614 43.7669 47.5921 43.7681L47.5646 43.7696L47.555 43.77L47.5512 43.7702L47.5496 43.7703C47.5489 43.7703 47.5482 43.7703 47.4591 41.7723ZM45.5815 42.4612L47.4591 41.7723L47.5482 43.7703C46.6774 43.8092 45.8817 43.2795 45.5815 42.4612Z" fill="#156319"/>
<path d="M56.2034 36.1167C58.0714 32.7666 56.9722 25.9531 56.9722 25.9531C51.4198 31.7215 50.0221 38.1307 49.705 40.445C49.705 40.445 54.3355 39.4668 56.2034 36.1167Z" fill="#6FC21C"/>
<path d="M37.0229 32.9155C38.9456 33.3749 45.3201 38.7989 47.1072 42.1762C47.2562 42.458 48.0253 42.017 47.8987 41.7702C46.8797 38.5534 43.6291 30.9603 41.0153 28.6719C37.5722 28.5994 36.9146 32.192 37.0229 32.9155Z" fill="#943D31"/>
<path fill-rule="evenodd" clip-rule="evenodd" d="M36.5581 34.8609C35.7645 34.6712 35.1656 34.0185 35.0449 33.2115C34.9643 32.6728 35.0435 32.0312 35.1674 31.4905C35.3049 30.8902 35.5522 30.1743 35.9673 29.4747C36.8368 28.0095 38.4712 26.618 41.0574 26.6725C41.5274 26.6824 41.9789 26.8575 42.3327 27.1672C43.2018 27.9281 44.0165 29.0224 44.7386 30.1596C45.4785 31.3248 46.1973 32.6582 46.8512 33.9933C48.1313 36.6071 49.222 39.3499 49.7758 41.0738C50.1867 42.127 49.5989 42.9894 49.4184 43.2178C49.1488 43.5588 48.8222 43.7872 48.5603 43.9293C48.3036 44.0686 47.9096 44.2336 47.4338 44.2627C46.9775 44.2907 45.9062 44.1829 45.3394 43.1117C44.6214 41.7548 42.8092 39.7507 40.7844 37.9441C39.8016 37.0672 38.831 36.2924 38.013 35.721C37.6034 35.4349 37.2522 35.2139 36.9715 35.0596C36.7178 34.9201 36.5881 34.8724 36.5614 34.8625C36.5557 34.8604 36.5547 34.8601 36.5581 34.8609ZM47.8987 41.7703C47.8976 41.7667 47.8964 41.763 47.8952 41.7593C47.7598 41.3324 47.5853 40.8291 47.3784 40.2719C47.1158 39.5642 46.8009 38.7694 46.4474 37.9335C44.9779 34.4578 42.8412 30.2706 41.0153 28.672C37.5722 28.5995 36.9146 32.1921 37.0229 32.9156C38.409 33.2468 42.109 36.1584 44.7357 39.0231C45.2916 39.6293 45.7994 40.2334 46.227 40.8106C46.5453 41.24 46.8191 41.6545 47.0353 42.0438C47.06 42.0883 47.084 42.1325 47.1072 42.1763C47.2562 42.4581 48.0253 42.0171 47.8987 41.7703ZM45.9746 42.3195C46.0081 42.437 46.0553 42.5585 46.1191 42.6831C46.0683 42.5839 46.0258 42.4806 45.9921 42.3743C45.9864 42.3562 45.9805 42.3379 45.9746 42.3195Z" fill="#633526"/>
<path d="M41.6808 28.7387C42.3091 29.4089 41.8714 30.8398 40.7034 31.9347C39.5353 33.0297 38.0791 33.374 37.4509 32.7039C36.8227 32.0337 37.2604 30.6028 38.4284 29.5079C39.5965 28.413 41.0526 28.0686 41.6808 28.7387Z" fill="#C26649"/>
<path d="M38.1792 41.7765C40.8242 43.0782 41.3854 47.3497 39.4328 51.3171C37.4802 55.2846 33.7531 57.4455 31.1082 56.1438C28.4632 54.842 27.902 50.5705 29.8546 46.6031C31.8072 42.6357 35.5343 40.4747 38.1792 41.7765Z" fill="#FF896F"/>
<path fill-rule="evenodd" clip-rule="evenodd" d="M35.1171 44.9608C35.9653 45.6683 36.0794 46.9295 35.3719 47.7777C34.9111 48.3301 34.6096 48.9131 34.4417 49.5371C34.1548 50.6037 33.0575 51.2358 31.9908 50.9489C30.9242 50.6619 30.2921 49.5646 30.5791 48.498C30.9045 47.2884 31.4867 46.1908 32.3002 45.2156C33.0077 44.3673 34.2689 44.2533 35.1171 44.9608Z" fill="white"/>
</g>
<defs>
<filter id="filter0_d_816_769" x="0" y="0" width="100" height="100" filterUnits="userSpaceOnUse" color-interpolation-filters="sRGB">
<feFlood flood-opacity="0" result="BackgroundImageFix"/>
<feColorMatrix in="SourceAlpha" type="matrix" values="0 0 0 0 0 0 0 0 0 0 0 0 0 0 0 0 0 0 127 0" result="hardAlpha"/>
<feOffset dx="4" dy="4"/>
<feColorMatrix type="matrix" values="0 0 0 0 0 0 0 0 0 0 0 0 0 0 0 0 0 0 0.2 0"/>
<feBlend mode="normal" in2="BackgroundImageFix" result="effect1_dropShadow_816_769"/>
<feBlend mode="normal" in="SourceGraphic" in2="effect1_dropShadow_816_769" result="shape"/>
</filter>
</defs>
</svg>
