<svg width="96" height="96" viewBox="0 0 96 96" fill="none" xmlns="http://www.w3.org/2000/svg">
<g filter="url(#filter0_d_816_777)">
<path fill-rule="evenodd" clip-rule="evenodd" d="M72.2517 52.3997C72.7007 61.6569 64.7313 70.9448 52.9739 74.1132C41.2583 77.2703 29.7416 73.2843 25.4418 65.1142C23.4546 65.6268 21.4691 64.6233 20.9931 62.8569C20.5171 61.0905 21.7295 59.2251 23.7053 58.6698C23.3176 49.4455 31.2721 40.2126 42.9876 37.0555C54.745 33.8871 66.3021 37.9129 70.5654 46.1421C72.2403 46.0626 73.7551 47.0159 74.1628 48.5287C74.5704 50.0415 73.7397 51.6269 72.2517 52.3997Z" fill="#FFD12F"/>
<path fill-rule="evenodd" clip-rule="evenodd" d="M74.2678 53.4419C74.1068 63.5051 65.3926 72.8379 53.4943 76.0442C41.7346 79.2132 29.6611 75.6459 24.3632 67.2429C22.0082 67.2222 19.7291 65.8524 19.062 63.3772C18.395 60.9019 19.6773 58.5725 21.7031 57.3712C22.0614 47.4441 30.7076 38.2933 42.4672 35.1244C54.3655 31.918 66.589 35.6084 71.7848 44.2279C73.746 44.5722 75.5234 45.8912 76.0939 48.0083C76.6644 50.1253 75.7905 52.1588 74.2678 53.4419ZM72.2517 52.3997C72.7008 61.6569 64.7314 70.9447 52.9739 74.1131C41.2583 77.2702 29.7416 73.2843 25.4419 65.1141C23.4546 65.6268 21.4692 64.6232 20.9931 62.8568C20.5171 61.0904 21.7295 59.2251 23.7053 58.6698C23.3177 49.4455 31.2721 40.2126 42.9876 37.0555C54.745 33.8871 66.3021 37.9128 70.5654 46.1421C72.2403 46.0626 73.7551 47.0159 74.1628 48.5287C74.5705 50.0415 73.7398 51.6268 72.2517 52.3997Z" fill="#755F13"/>
<path d="M45.9451 44.7301C47.3718 47.8576 44.7254 52.1277 40.0342 54.2678C35.3431 56.4078 30.3835 55.6074 28.9568 52.4799C27.5302 49.3524 30.1766 45.0823 34.8677 42.9423C39.5589 40.8022 44.5184 41.6027 45.9451 44.7301Z" fill="#FFEA2F"/>
<path d="M24.4194 60.2726C24.7401 60.9755 24.3645 61.8352 23.5806 62.1928C22.7966 62.5504 21.9012 62.2706 21.5806 61.5677C21.2599 60.8648 21.6355 60.0051 22.4194 59.6475C23.2034 59.2899 24.0988 59.5698 24.4194 60.2726Z" fill="#FFEA2F"/>
<path fill-rule="evenodd" clip-rule="evenodd" d="M45.833 68.5124C59.1801 64.9156 67.9247 54.2988 65.3647 44.799C64.608 41.991 62.9483 39.5949 60.6409 37.7054C65.0454 39.4157 68.5891 42.3273 70.5654 46.1421C72.2403 46.0626 73.7551 47.0159 74.1628 48.5287C74.5704 50.0415 73.7398 51.6268 72.2517 52.3997C72.7007 61.6569 64.7313 70.9446 52.9739 74.113C42.8041 76.8536 32.7842 74.2117 27.5047 68.1228C32.6977 70.018 39.2098 70.2972 45.833 68.5124Z" fill="#DEB523"/>
<path d="M64.874 56.7555C64.2021 57.4906 63.0615 57.5418 62.3264 56.8699C61.5914 56.198 61.5402 55.0574 62.2121 54.3223C62.884 53.5872 64.0245 53.536 64.7596 54.2079C65.4947 54.8798 65.5459 56.0204 64.874 56.7555Z" fill="#C89616"/>
<path d="M66.4338 62.0671C65.7618 62.8022 64.6213 62.8534 63.8862 62.1815C63.1511 61.5096 63.0999 60.369 63.7718 59.6339C64.4437 58.8989 65.5843 58.8477 66.3194 59.5196C67.0544 60.1915 67.1057 61.3321 66.4338 62.0671Z" fill="#C89616"/>
<path d="M69.7222 57.1332C69.2183 57.6845 68.3628 57.7229 67.8115 57.219C67.2602 56.715 67.2218 55.8596 67.7257 55.3083C68.2297 54.757 69.0851 54.7186 69.6364 55.2225C70.1877 55.7264 70.2261 56.5819 69.7222 57.1332Z" fill="#C89616"/>
<path d="M62.1757 66.7256C61.5038 67.4607 60.3632 67.5119 59.6281 66.84C58.8931 66.1681 58.8418 65.0275 59.5138 64.2924C60.1857 63.5573 61.3262 63.5061 62.0613 64.178C62.7964 64.8499 62.8476 65.9905 62.1757 66.7256Z" fill="#C89616"/>
<path d="M60.6159 60.4138C59.944 61.1489 58.8035 61.2001 58.0684 60.5282C57.3333 59.8563 57.2821 58.7157 57.954 57.9806C58.6259 57.2456 59.7665 57.1943 60.5016 57.8663C61.2366 58.5382 61.2878 59.6787 60.6159 60.4138Z" fill="#C89616"/>
<path d="M56.2565 69.5163C55.3759 70.4798 53.8809 70.5469 52.9174 69.6662C51.954 68.7856 51.8869 67.2906 52.7675 66.3271C53.6482 65.3637 55.1432 65.2966 56.1066 66.1772C57.0701 67.0579 57.1372 68.5529 56.2565 69.5163Z" fill="#C89616"/>
<path d="M48.8786 71.9298C48.2067 72.6649 47.0661 72.7161 46.331 72.0442C45.5959 71.3723 45.5447 70.2317 46.2166 69.4966C46.8885 68.7615 48.0291 68.7103 48.7642 69.3822C49.4993 70.0541 49.5505 71.1947 48.8786 71.9298Z" fill="#C89616"/>
<path d="M54.2797 62.9513C53.7654 63.514 52.8923 63.5532 52.3296 63.0388C51.7669 62.5245 51.7278 61.6514 52.2421 61.0888C52.7564 60.5261 53.6295 60.4869 54.1922 61.0012C54.7548 61.5155 54.794 62.3886 54.2797 62.9513Z" fill="#C89616"/>
<path d="M50.8704 67.4543C50.456 67.9077 49.7524 67.9393 49.299 67.5249C48.8456 67.1104 48.814 66.4069 49.2284 65.9534C49.6429 65.5 50.3465 65.4684 50.7999 65.8829C51.2533 66.2973 51.2849 67.0009 50.8704 67.4543Z" fill="#C89616"/>
<path d="M41.9089 72.9888C41.405 73.5401 40.5495 73.5785 39.9982 73.0745C39.4469 72.5706 39.4085 71.7152 39.9124 71.1639C40.4164 70.6126 41.2718 70.5742 41.8231 71.0781C42.3744 71.582 42.4128 72.4375 41.9089 72.9888Z" fill="#C89616"/>
<path fill-rule="evenodd" clip-rule="evenodd" d="M36.98 46.4717C37.474 47.4597 37.0735 48.661 36.0856 49.155C35.2944 49.5506 34.6616 50.0626 34.1595 50.6903C33.4694 51.5528 32.2109 51.6926 31.3483 51.0026C30.4858 50.3126 30.346 49.054 31.036 48.1915C31.917 47.0903 33.0131 46.2191 34.2967 45.5773C35.2847 45.0833 36.486 45.4838 36.98 46.4717Z" fill="white"/>
<path fill-rule="evenodd" clip-rule="evenodd" d="M70.4506 51.483C72.1253 51.483 73.483 50.1253 73.483 48.4506C73.483 47.9251 73.3493 47.4309 73.1142 47C74.0566 47.5143 74.6959 48.5143 74.6959 49.6636C74.6959 51.3383 73.3383 52.6959 71.6636 52.6959C70.5143 52.6959 69.5143 52.0566 69 51.1142C69.4309 51.3493 69.9251 51.483 70.4506 51.483Z" fill="#AE8C14"/>
</g>
<defs>
<filter id="filter0_d_816_777" x="0" y="0" width="100" height="100" filterUnits="userSpaceOnUse" color-interpolation-filters="sRGB">
<feFlood flood-opacity="0" result="BackgroundImageFix"/>
<feColorMatrix in="SourceAlpha" type="matrix" values="0 0 0 0 0 0 0 0 0 0 0 0 0 0 0 0 0 0 127 0" result="hardAlpha"/>
<feOffset dx="4" dy="4"/>
<feColorMatrix type="matrix" values="0 0 0 0 0 0 0 0 0 0 0 0 0 0 0 0 0 0 0.2 0"/>
<feBlend mode="normal" in2="BackgroundImageFix" result="effect1_dropShadow_816_777"/>
<feBlend mode="normal" in="SourceGraphic" in2="effect1_dropShadow_816_777" result="shape"/>
</filter>
</defs>
</svg>
